<svg width="103" height="25" viewBox="0 0 103 25" fill="none" xmlns="http://www.w3.org/2000/svg">
<path d="M102.757 7.37887C102.743 6.32917 102.547 5.28991 102.177 4.30757C101.855 3.47898 101.365 2.72646 100.737 2.09811C100.108 1.46976 99.3559 0.979392 98.5273 0.658333C97.5576 0.294319 96.5331 0.0974904 95.4976 0.0762281C94.1643 0.0166316 93.7416 0 90.357 0C86.9725 0 86.5387 9.29361e-08 85.2151 0.0762281C84.18 0.0976467 83.1561 0.294473 82.1868 0.658333C81.3581 0.979168 80.6054 1.46946 79.9771 2.09784C79.3487 2.72622 78.8584 3.47885 78.5376 4.30757C78.1728 5.27655 77.9764 6.30074 77.9568 7.3359C77.8972 8.67059 77.8792 9.0933 77.8792 12.4778C77.8792 15.8623 77.8792 16.2948 77.9568 17.6197C77.9776 18.6565 78.173 19.6793 78.5376 20.6509C78.8589 21.4793 79.3496 22.2316 79.9782 22.8598C80.6068 23.4879 81.3595 23.978 82.1882 24.2987C83.1548 24.6773 84.1789 24.8883 85.2165 24.9224C86.5512 24.982 86.9739 25 90.3584 25C93.743 25 94.1768 25 95.5004 24.9224C96.5359 24.902 97.5604 24.7056 98.5301 24.3417C99.3584 24.0202 100.111 23.5297 100.739 22.9014C101.367 22.2731 101.858 21.5208 102.179 20.6924C102.544 19.7223 102.739 18.6994 102.76 17.6613C102.82 16.328 102.838 15.9053 102.838 12.5194C102.835 9.13488 102.835 8.70523 102.757 7.37887ZM90.3487 18.8782C86.809 18.8782 83.9414 16.0106 83.9414 12.4709C83.9414 8.93115 86.809 6.06359 90.3487 6.06359C92.0481 6.06359 93.6778 6.73864 94.8794 7.94025C96.081 9.14185 96.756 10.7716 96.756 12.4709C96.756 14.1702 96.081 15.7999 94.8794 17.0015C93.6778 18.2031 92.0481 18.8782 90.3487 18.8782ZM97.0111 7.32066C96.8148 7.32084 96.6204 7.28232 96.4391 7.2073C96.2577 7.13228 96.093 7.02223 95.9542 6.88346C95.8154 6.74469 95.7054 6.57991 95.6303 6.39856C95.5553 6.21721 95.5168 6.02284 95.517 5.82659C95.517 5.63048 95.5556 5.43628 95.6307 5.2551C95.7057 5.07391 95.8157 4.90929 95.9544 4.77061C96.0931 4.63194 96.2577 4.52194 96.4389 4.44689C96.6201 4.37184 96.8143 4.33321 97.0104 4.33321C97.2065 4.33321 97.4007 4.37184 97.5819 4.44689C97.763 4.52194 97.9277 4.63194 98.0663 4.77061C98.205 4.90929 98.315 5.07391 98.3901 5.2551C98.4651 5.43628 98.5037 5.63048 98.5037 5.82659C98.5037 6.65262 97.8357 7.32066 97.0111 7.32066Z" fill="white"/>
<path d="M90.3518 16.6332C92.6504 16.6332 94.5139 14.7698 94.5139 12.4711C94.5139 10.1725 92.6504 8.30908 90.3518 8.30908C88.0532 8.30908 86.1898 10.1725 86.1898 12.4711C86.1898 14.7698 88.0532 16.6332 90.3518 16.6332Z" fill="white"/>
<path d="M57.0913 5.15583C56.4122 6.16758 55.5529 7.06846 54.555 7.78916C54.5688 7.99705 54.5688 8.21881 54.5688 8.44056C54.5688 15.1625 49.4546 22.91 40.1132 22.91C37.2443 22.91 34.5694 22.0646 32.3103 20.6232C32.7122 20.6648 33.1141 20.6925 33.5299 20.6925C35.9138 20.6925 38.1036 19.8748 39.836 18.5165C38.7763 18.4946 37.7498 18.1422 36.9 17.5086C36.0502 16.875 35.4195 15.9918 35.0961 14.9823C35.401 15.0377 35.7197 15.0793 36.0524 15.0793C36.5097 15.0793 36.9671 15.01 37.3829 14.8991C36.2334 14.6632 35.2004 14.038 34.4581 13.1291C33.7158 12.2202 33.3097 11.0832 33.3082 9.90968V9.85424C34.0011 10.2285 34.7773 10.4641 35.6089 10.4918C34.9128 10.0249 34.3426 9.39369 33.9486 8.65398C33.5545 7.91427 33.3489 7.08885 33.3497 6.25074C33.3497 5.32214 33.5992 4.44899 34.0427 3.70057C36.5513 6.77741 40.2934 8.80091 44.5206 9.00881C44.4374 8.6346 44.382 8.24653 44.382 7.8446C44.3857 6.49798 44.9232 5.20777 45.8767 4.25687C46.8302 3.30596 48.1219 2.77197 49.4685 2.77197C50.9376 2.77197 52.2543 3.3818 53.1829 4.37969C54.3332 4.14408 55.4281 3.72829 56.4122 3.14618C56.0241 4.32425 55.2202 5.32214 54.1669 5.94583C55.1767 5.83545 56.1633 5.56894 57.0913 5.15583Z" fill="white"/>
<path d="M3.40947 23.5614H7.47034V13.4439H10.866L11.3788 9.50773H7.47034V6.98528C7.47034 5.84879 7.78911 5.07265 9.42455 5.07265H11.5174V1.53844C11.157 1.49686 9.9235 1.38599 8.48209 1.38599C5.46069 1.38599 3.40947 3.22932 3.40947 6.59721V9.50773H0V13.4439H3.40947V23.5614Z" fill="white"/>
</svg>
